<svg height="512" viewBox="0 0 64 64" width="512" xmlns="http://www.w3.org/2000/svg"><g id="photo_shop-image-gallery-picture-shop" data-name="photo shop-image-gallery-picture-shop"><path d="m8 23h48v34h-48z" fill="#fee9ab"/><path d="m52 23h4v34h-4z" fill="#ffd422"/><path d="m61 59a2.015 2.015 0 0 1 -2 2h-54a2.006 2.006 0 0 1 -2-2 2.015 2.015 0 0 1 2-2h54a2.006 2.006 0 0 1 2 2z" fill="#898890"/><path d="m61 59a2.015 2.015 0 0 1 -2 2h-4a2.015 2.015 0 0 0 2-2 2.006 2.006 0 0 0 -2-2h4a2.006 2.006 0 0 1 2 2z" fill="#57565c"/><path d="m58.28 13.67 1.72 10.33a4 4 0 1 1 -8 0v-12h4.31a2.006 2.006 0 0 1 1.97 1.67z" fill="#ff3051"/><path d="m60 24a3.994 3.994 0 0 1 -6 3.46 4.225 4.225 0 0 0 .83-.63 4.025 4.025 0 0 0 1.17-2.83l-1.72-10.33a2.006 2.006 0 0 0 -1.97-1.67h4a2.006 2.006 0 0 1 1.97 1.67z" fill="#cd2a00"/><rect fill="#46f8ff" height="20" rx="2" width="24" x="28" y="33"/><path d="m52 35v16a2.006 2.006 0 0 1 -2 2h-4a2.006 2.006 0 0 0 2-2v-16a2.006 2.006 0 0 0 -2-2h4a2.006 2.006 0 0 1 2 2z" fill="#00d7df"/><rect fill="#ebe5dd" height="20" rx="2" width="32" x="16" y="3"/><path d="m48 5v16a2.006 2.006 0 0 1 -2 2h-4a2.006 2.006 0 0 0 2-2v-16a2.006 2.006 0 0 0 -2-2h4a2.006 2.006 0 0 1 2 2z" fill="#c0ab91"/><path d="m24 43v14h-12v-14a6 6 0 0 1 6-6 6.009 6.009 0 0 1 6 6z" fill="#a78966"/><path d="m24 43v14h-4v-14a5.944 5.944 0 0 0 -1.76-4.24 5.769 5.769 0 0 0 -2.24-1.41 5.8 5.8 0 0 1 2-.35 6.009 6.009 0 0 1 6 6z" fill="#806749"/><path d="m52 12v12a4 4 0 1 1 -8 0v-1h2a2.006 2.006 0 0 0 2-2v-9z" fill="#ff3051"/><path d="m46 41 6 7h-12z" fill="#5eac24"/><path d="m44 23v1a4 4 0 1 1 -8 0 4 4 0 1 1 -8 0 4 4 0 1 1 -8 0 4 4 0 1 1 -8 0v-12h4v9a2.006 2.006 0 0 0 2 2z" fill="#ff3051"/><path d="m44 7v12l-6-6-6 6-6-6-6 6v-12zm-10 5a2 2 0 1 0 -2 2 2.006 2.006 0 0 0 2-2z" fill="#57a4ff"/><path d="m44 19h-12l6-6z" fill="#5eac24"/><circle cx="40" cy="40" fill="#ff3051" r="2"/><path d="m34 41 6 7h-12z" fill="#5eac24"/><circle cx="32" cy="12" fill="#ff3051" r="2"/><path d="m32 19h-12l6-6z" fill="#5eac24"/><path d="m12 12v12a4 4 0 1 1 -8 0l1.72-10.33a2.006 2.006 0 0 1 1.97-1.67z" fill="#ff3051"/><path d="m32 15a3 3 0 1 0 -3-3 3 3 0 0 0 3 3zm0-4a1 1 0 1 1 -1 1 1 1 0 0 1 1-1z"/><path d="m20 47h2v2h-2z"/><path d="m59 56h-2v-27.1a5.017 5.017 0 0 0 4-4.9.808.808 0 0 0 -.01-.16l-1.73-10.33a2.978 2.978 0 0 0 -2.95-2.51h-7.31v-6a3.009 3.009 0 0 0 -3-3h-28a3.009 3.009 0 0 0 -3 3v6h-7.31a2.978 2.978 0 0 0 -2.95 2.51l-1.73 10.33a.808.808 0 0 0 -.01.16 5.017 5.017 0 0 0 4 4.9v27.1h-2a3 3 0 0 0 0 6h54a3 3 0 0 0 0-6zm-6-43h3.31a.989.989 0 0 1 .98.84l1.71 10.24a3 3 0 0 1 -6-.08zm-4 8v-8h2v11a3 3 0 0 1 -6 0h1a3.009 3.009 0 0 0 3-3zm-32-16a1 1 0 0 1 1-1h28a1 1 0 0 1 1 1v16a1 1 0 0 1 -1 1h-28a1 1 0 0 1 -1-1zm26 19a3 3 0 0 1 -6 0zm-8 0a3 3 0 0 1 -6 0zm-8 0a3 3 0 0 1 -6 0zm-14-11h2v8a3.009 3.009 0 0 0 3 3h1a3 3 0 0 1 -6 0zm-1 14a5 5 0 0 0 8 0 5 5 0 0 0 8 0 5 5 0 0 0 8 0 5 5 0 0 0 8 0 5 5 0 0 0 8 0 4.994 4.994 0 0 0 3 1.89v27.11h-30v-13a7 7 0 0 0 -14 0v13h-2v-27.11a4.994 4.994 0 0 0 3-1.89zm11 16v13h-10v-13a5 5 0 0 1 10 0zm-18-18.92 1.71-10.24a.989.989 0 0 1 .98-.84h3.31v11a3 3 0 0 1 -6 .08zm54 35.92h-54a1 1 0 0 1 0-2h54a1 1 0 0 1 0 2z"/><path d="m50 32h-20a3.009 3.009 0 0 0 -3 3v16a3.009 3.009 0 0 0 3 3h20a3.009 3.009 0 0 0 3-3v-16a3.009 3.009 0 0 0 -3-3zm1 19a1 1 0 0 1 -1 1h-20a1 1 0 0 1 -1-1v-2h22zm-20.83-4 3.83-4.46 3.83 4.46zm12 0 3.83-4.46 3.83 4.46zm8.83-1.7-4.24-4.95a1.04 1.04 0 0 0 -1.52 0l-5.24 6.11-5.24-6.11a1.04 1.04 0 0 0 -1.52 0l-4.24 4.95v-10.3a1 1 0 0 1 1-1h20a1 1 0 0 1 1 1z"/><path d="m44 6h-24a1 1 0 0 0 -1 1v12a1 1 0 0 0 1 1h24a1 1 0 0 0 1-1v-12a1 1 0 0 0 -1-1zm-21.59 12 3.59-3.59 3.59 3.59zm12 0 3.59-3.59 3.59 3.59zm8.59-1.41-4.29-4.3a1.008 1.008 0 0 0 -1.42 0l-5.29 5.3-5.29-5.3a1.008 1.008 0 0 0 -1.42 0l-4.29 4.3v-8.59h22z"/><path d="m40 43a3 3 0 1 0 -3-3 3 3 0 0 0 3 3zm0-4a1 1 0 1 1 -1 1 1 1 0 0 1 1-1z"/></g></svg>