<svg height="479pt" viewBox="0 -71 479.99921 479" width="479pt" xmlns="http://www.w3.org/2000/svg"><path d="m272 224.5h-64c-4.421875 0-8 3.582031-8 8v32c0 4.417969 3.578125 8 8 8h64c4.417969 0 8-3.582031 8-8v-32c0-4.417969-3.582031-8-8-8zm-8 32h-48v-16h48zm0 0"/><path d="m479.390625 165.4375c-1.238281-2.992188-4.15625-4.9375-7.390625-4.9375h-56.410156c-4.210938-54.121094-49.308594-95.914062-103.589844-96h-40v-40c0-13.253906-10.746094-24-24-24h-16c-13.257812 0-24 10.746094-24 24v40h-40c-54.285156.085938-99.382812 41.878906-103.59375 96h-56.40625c-3.238281 0-6.152344 1.949219-7.390625 4.9375s-.5546875 6.429688 1.734375 8.71875l61.65625 61.65625v76.6875c0 13.253906 10.742188 24 24 24h304c13.253906 0 24-10.746094 24-24v-76.6875l61.652344-61.65625c2.292968-2.289062 2.976562-5.730469 1.738281-8.71875zm-255.390625-140.9375c0-4.417969 3.578125-8 8-8h16c4.417969 0 8 3.582031 8 8v40h-32zm-56 56h144c45.480469.054688 83.449219 34.710938 87.636719 80h-319.277344c4.191406-45.289062 42.15625-79.945312 87.640625-80zm-140.691406 96h36.691406v36.6875zm156.691406 144v-112h112v112zm216-8c0 4.417969-3.582031 8-8 8h-80v-120c0-4.417969-3.582031-8-8-8h-128c-4.421875 0-8 3.582031-8 8v120h-80c-4.421875 0-8-3.582031-8-8v-136h320zm16-99.3125v-36.6875h36.6875zm0 0"/></svg>