<svg id="Capa_1" enable-background="new 0 0 512 512" height="512" viewBox="0 0 512 512" width="512" xmlns="http://www.w3.org/2000/svg"><g><path d="m454.145 291.886v-82.854c0-109.257-88.888-198.144-198.145-198.144s-198.145 88.888-198.145 198.144v82.854c-33 6.916-57.855 36.164-57.855 71.099v38.876c0 34.935 24.855 64.183 57.855 71.099v28.151h43.083c23.931 0 43.399-19.469 43.399-43.399v-151.111c0-23.149-18.833-41.983-41.982-41.983h-14.5v-55.585c0-92.715 75.43-168.144 168.145-168.144s168.145 75.429 168.145 168.144v55.585h-14.5c-23.149 0-41.982 18.833-41.982 41.983v151.111c0 23.931 19.469 43.399 43.398 43.399h43.084v-28.151c33-6.916 57.855-36.164 57.855-71.099v-38.876c0-34.935-24.855-64.183-57.855-71.099zm-424.145 109.976v-38.876c0-18.271 11.601-33.895 27.855-39.959v118.795c-16.254-6.066-27.855-21.69-27.855-39.96zm84.338-95.261v151.111c0 7.389-6.011 13.399-13.399 13.399h-13.084v-176.493h14.5c6.608 0 11.983 5.375 11.983 11.983zm283.324 151.111v-151.111c0-6.607 5.375-11.983 11.982-11.983h14.5v176.494h-13.084c-7.387 0-13.398-6.011-13.398-13.4zm84.338-55.85c0 18.271-11.601 33.895-27.855 39.959v-118.795c16.254 6.065 27.855 21.689 27.855 39.959z"/><path d="m259.745 166.112v167.597c-5.223-2.018-10.891-3.136-16.817-3.136-25.814 0-46.816 21.002-46.816 46.817s21.002 46.817 46.816 46.817c25.815 0 46.817-21.002 46.817-46.817v-123.482h26.285c13.451 0 26.083-5.251 35.569-14.788s14.673-22.195 14.603-35.646l-.193-37.363h-106.264zm-16.817 228.094c-9.272 0-16.816-7.544-16.816-16.817s7.544-16.817 16.816-16.817c9.273 0 16.817 7.544 16.817 16.817s-7.544 16.817-16.817 16.817zm87.403-176.243c-3.813 3.834-8.893 5.945-14.301 5.945h-26.285v-27.796h46.418l.039 7.519c.028 5.408-2.056 10.498-5.871 14.332z"/></g></svg>