<svg height="512" viewBox="0 0 64 64" width="512" xmlns="http://www.w3.org/2000/svg"><path d="m59 40h-1v-1a3 3 0 0 0 -3-3v-11a23 23 0 0 0 -46 0v11a3 3 0 0 0 -3 3v1h-1a3 3 0 0 0 -3 3v12a3 3 0 0 0 3 3h1v1a3 3 0 0 0 3 3h8a1 1 0 0 0 1-1h1a3 3 0 0 0 3-3v-18a3 3 0 0 0 -3-3h-1a1 1 0 0 0 -1-1h-2v-11a17 17 0 0 1 34 0v11h-2a1 1 0 0 0 -1 1h-1a3 3 0 0 0 -3 3v18a3 3 0 0 0 3 3h1a1 1 0 0 0 1 1h8a3 3 0 0 0 3-3v-1h1a3 3 0 0 0 3-3v-12a3 3 0 0 0 -3-3zm-40-1a1 1 0 0 1 1 1v18a1 1 0 0 1 -1 1h-1v-20zm26 20a1 1 0 0 1 -1-1v-18a1 1 0 0 1 1-1h1v20zm-40-3a1 1 0 0 1 -1-1v-12a1 1 0 0 1 1-1h1v14zm11 4h-7a1 1 0 0 1 -1-1v-20a1 1 0 0 1 1-1h7zm16-54a19.021 19.021 0 0 0 -19 19v11h-2v-11a21 21 0 0 1 42 0v11h-2v-11a19.021 19.021 0 0 0 -19-19zm24 53a1 1 0 0 1 -1 1h-7v-22h7a1 1 0 0 1 1 1zm4-4a1 1 0 0 1 -1 1h-1v-14h1a1 1 0 0 1 1 1z"/><path d="m11 53h-2v5a1 1 0 0 0 1 1h3v-2h-2z"/><path d="m9 49h2v2h-2z"/><path d="m53 57h-2v2h3a1 1 0 0 0 1-1v-5h-2z"/><path d="m53 49h2v2h-2z"/></svg>