<?xml version="1.0"?>
<svg xmlns="http://www.w3.org/2000/svg" viewBox="0 0 64 64" width="512" height="512"><g id="Microphone"><path d="M32,38A10.011,10.011,0,0,0,42,28V12a10,10,0,0,0-20,0V28A10.011,10.011,0,0,0,32,38ZM32,4a8.008,8.008,0,0,1,7.931,7H35v2h5v2H35v2h5v2H35v2h5v2H35v2h5v2H35v2h4.931a7.993,7.993,0,0,1-15.862,0H29V27H24V25h5V23H24V21h5V19H24V17h5V15H24V13h5V11H24.069A8.008,8.008,0,0,1,32,4Z"/><path d="M47,23a3,3,0,0,0-3,3v2A12.012,12.012,0,0,1,31.4,39.985,12.183,12.183,0,0,1,20,27.625V26a3,3,0,0,0-6,0v2A18.083,18.083,0,0,0,29,45.725V52H28a5.009,5.009,0,0,0-4.9,4H22a3,3,0,0,0-3,3v2a1,1,0,0,0,1,1H44a1,1,0,0,0,1-1V59a3,3,0,0,0-3-3H40.9A5.009,5.009,0,0,0,36,52H35V45.721a17.774,17.774,0,0,0,9.4-4.89A18.763,18.763,0,0,0,50,27.548V26A3,3,0,0,0,47,23ZM43,59v1H21V59a1,1,0,0,1,1-1H42A1,1,0,0,1,43,59Zm-4.184-3H25.184A3,3,0,0,1,28,54h8A3,3,0,0,1,38.816,56ZM33,52H31V45.95c.235.014.466.044.7.048l.284,0c.34,0,.675-.031,1.012-.051ZM48,27.548a16.751,16.751,0,0,1-5,11.857A15.674,15.674,0,0,1,31.737,44,16.071,16.071,0,0,1,16,28V26a1,1,0,0,1,2,0v1.625A14.181,14.181,0,0,0,31.3,41.983,14.013,14.013,0,0,0,46,28V26a1,1,0,0,1,2,0Z"/><path d="M2,13A11.013,11.013,0,0,0,13,24V22A9,9,0,0,1,13,4V2A11.013,11.013,0,0,0,2,13Z"/><path d="M6,13a7.008,7.008,0,0,0,7,7V18A5,5,0,0,1,13,8V6A7.008,7.008,0,0,0,6,13Z"/><path d="M10,13a3,3,0,0,0,3,3V14a1,1,0,0,1,0-2V10A3,3,0,0,0,10,13Z"/><path d="M51,2V4a9,9,0,0,1,0,18v2A11,11,0,0,0,51,2Z"/><path d="M58,13a7.008,7.008,0,0,0-7-7V8a5,5,0,0,1,0,10v2A7.008,7.008,0,0,0,58,13Z"/><path d="M54,13a3,3,0,0,0-3-3v2a1,1,0,0,1,0,2v2A3,3,0,0,0,54,13Z"/></g></svg>
