<svg id="Capa_1" enable-background="new 0 0 512 512" height="512" viewBox="0 0 512 512" width="512" xmlns="http://www.w3.org/2000/svg"><g><path d="m80.537 438.731c47.191 17.584 109.504 27.269 175.463 27.269 66.465 0 129.29-13.036 176.902-36.705 51.007-25.358 79.098-60.266 79.098-98.295 0-37.892-28.534-72.886-80.347-98.535-24.695-12.226-40.653-39.169-40.653-68.641v-72.824c0-24.813-20.187-45-45-45h-32.378c-23.233 0-42.933 18.138-44.847 41.293l-3.545 42.89c-10.049 68.816-61.465 123.595-127.216 137.109-53.677 11.033-138.014 39.286-138.014 93.708 0 30.772 28.603 58.377 80.537 77.731zm214.148-302.731h66.315s.023 29.275.037 30h-73.395c3.094-9.695 5.462-19.718 7.043-30zm18.937-60h32.378c8.271 0 15 6.729 15 15v15h-63.668l1.342-16.236c.638-7.718 7.204-13.764 14.948-13.764zm-169.568 220.678c57.271-11.771 104.993-49.638 131.2-100.678h90.541c8.361 27.488 27.181 50.792 52.549 63.35 40.454 20.027 63.656 46.142 63.656 71.65 0 25.664-22.763 51.7-62.452 71.431-43.545 21.647-101.627 33.569-163.548 33.569-62.472 0-121.064-9.014-164.987-25.381-38.204-14.236-61.013-32.786-61.013-49.619 0-33.503 79.881-57.298 114.054-64.322z"/><circle cx="106" cy="361" r="15"/><circle cx="181" cy="346" r="15"/><circle cx="226" cy="301" r="15"/><circle cx="376" cy="301" r="15"/><circle cx="406" cy="361" r="15"/><circle cx="346" cy="391" r="15"/><circle cx="316" cy="331" r="15"/></g></svg>