<?xml version="1.0" encoding="utf-8"?>
<!-- Generator: Adobe Illustrator 24.0.1, SVG Export Plug-In . SVG Version: 6.00 Build 0)  -->
<svg version="1.1" id="Calque_1" xmlns="http://www.w3.org/2000/svg" xmlns:xlink="http://www.w3.org/1999/xlink" x="0px" y="0px"
	 viewBox="0 0 686.77 621.99" style="enable-background:new 0 0 686.77 621.99;" xml:space="preserve">
<style type="text/css">
	.st0{fill:#ffffff;}
</style>
<path class="st0" d="M228.05,230.37c3.65-5.18,7.7-10.15,12.03-14.81l7.69,7.19l1.26-1.35l-7.69-7.19c1.28-1.34,2.58-2.65,3.9-3.93
	l16.2,16.91l0.67-0.64c4.71-4.51,9.85-8.64,15.25-12.31l6.58,10.02l0.95-0.65c16.99-11.51,36.94-17.62,57.68-17.68
	c0.1,0,0.2,0,0.3,0c23.84,0,47.11,8.27,65.56,23.3l1.16-1.43c-15.72-12.82-34.9-20.78-54.96-23.03l1.99-17.41l5.31-4.22l-5.08-6.39
	l-6.4,5.08l4.32,5.44l-1.98,17.31c-3.29-0.31-6.6-0.49-9.93-0.49c-0.07,0-0.13,0-0.2,0l-0.02-33.32c0.07,0,0.15,0,0.23,0
	c9.94,0,19.75,1.06,29.29,3.1l-5.29,22.85l0.91,0.2c20.72,4.5,39.87,14.62,55.36,29.27c1.28,1.2,2.55,2.46,3.77,3.73l1.33-1.28
	c-1.03-1.07-2.1-2.11-3.17-3.13l14.99-15.61c6.54,6.26,12.52,13.19,17.82,20.75l0.57,0.81l6.57-5.31l-0.49-0.71
	c-16.65-23.86-39.8-42.21-66.95-53.06c-17.64-7.05-36.17-10.68-54.95-10.68l-0.01-8.84l-1.84,0l0.02,9.75l0.01,6.34
	c-2.33,0.03-4.65,0.12-6.96,0.26l-0.43-6.75l-1.84,0.12l0.43,6.76c-1.93,0.14-3.86,0.33-5.78,0.55l-1.89-16.07l-1.83,0.22
	l1.89,16.08c-2.31,0.3-4.6,0.65-6.88,1.05l-1.2-6.64l-1.82,0.33l1.2,6.64c-1.9,0.36-3.8,0.76-5.68,1.21l-3.75-15.82l-1.8,0.42
	l3.75,15.84c-2.26,0.56-4.5,1.18-6.72,1.84l-1.94-6.43l-1.77,0.54l1.94,6.43c-1.84,0.58-3.67,1.21-5.48,1.86L288.68,162l-1.73,0.63
	l5.58,15.39c-2.15,0.81-4.29,1.68-6.4,2.6l-2.67-6.14l-1.69,0.74l2.65,6.17c-1.76,0.8-3.51,1.62-5.24,2.49l-7.37-14.75l-1.65,0.82
	l7.38,14.77c-2.05,1.06-4.08,2.18-6.08,3.35l-3.36-5.8l-1.6,0.93l3.37,5.81c-1.64,0.98-3.26,2.01-4.86,3.06l-9.14-13.92l-1.54,1.01
	l9.15,13.94c-1.92,1.3-3.81,2.65-5.67,4.04l-4.02-5.39l-1.48,1.1l4.03,5.41c-1.49,1.15-2.96,2.33-4.41,3.54l-10.87-12.86l-1.41,1.19
	l10.87,12.86c-1.77,1.52-3.5,3.08-5.21,4.69l-4.68-4.89l-1.33,1.28l4.68,4.89c-1.35,1.31-2.67,2.64-3.97,4.01l-4.93-4.61l-7.47-6.99
	l-1.26,1.35l6.81,6.37c-4.58,4.9-8.87,10.15-12.73,15.61l-0.52,0.73l7.62,5.74L228.05,230.37z M353.06,182.12l3.51-2.79l2.79,3.51
	l-3.51,2.79L353.06,182.12z M369.1,195.31l2.38-10.3c1.02,0.24,2.04,0.49,3.06,0.75l-2.78,10.2
	C370.87,195.74,369.99,195.51,369.1,195.31z M373.55,196.41l2.77-10.18c1.01,0.28,2.03,0.55,3.03,0.85l-3.16,10.06
	C375.31,196.89,374.43,196.65,373.55,196.41z M377.96,197.69l3.15-10.04c1,0.32,2,0.63,3,0.97l-3.53,9.9
	C379.71,198.23,378.83,197.96,377.96,197.69z M382.32,199.13l3.53-9.9c0.99,0.35,1.97,0.71,2.96,1.09l-3.9,9.74
	C384.04,199.74,383.18,199.44,382.32,199.13z M386.62,200.74l3.9-9.74c0.98,0.39,1.95,0.8,2.91,1.21l-4.27,9.58
	C388.32,201.42,387.47,201.08,386.62,200.74z M390.86,202.51l4.27-9.57c0.96,0.43,1.91,0.87,2.86,1.33l-4.63,9.39
	C392.53,203.27,391.7,202.88,390.86,202.51z M395.03,204.44l4.63-9.39c0.94,0.47,1.88,0.96,2.81,1.44l-4.98,9.19
	C396.67,205.27,395.85,204.85,395.03,204.44z M399.11,206.55l4.98-9.19c0.93,0.5,1.84,1.01,2.76,1.54l-5.32,8.99
	C400.73,207.43,399.92,206.99,399.11,206.55z M403.12,208.82l5.32-8.98c0.91,0.54,1.81,1.07,2.7,1.63l-5.65,8.76
	C404.7,209.75,403.91,209.28,403.12,208.82z M407.04,211.23l5.65-8.76c0.88,0.57,1.76,1.15,2.63,1.74l-5.98,8.53
	C408.58,212.23,407.81,211.73,407.04,211.23z M410.86,213.8l5.97-8.52c0.86,0.61,1.71,1.22,2.56,1.85l-6.29,8.28
	C412.36,214.86,411.61,214.33,410.86,213.8z M414.58,216.51l6.29-8.27c0.84,0.64,1.66,1.29,2.48,1.95l-6.59,8.02
	C416.04,217.63,415.32,217.06,414.58,216.51z M418.2,219.36l6.59-8.02c0.81,0.67,1.61,1.36,2.41,2.06l-6.89,7.75
	C419.61,220.54,418.91,219.94,418.2,219.36z M423.75,224.21c-0.68-0.63-1.35-1.25-2.04-1.86l6.88-7.74c0.78,0.7,1.55,1.42,2.32,2.15
	L423.75,224.21z M438.74,208.6l-6.55,6.82c-16.84-15.85-37.65-26.97-60.3-32.21l2.07-8.95C398.18,179.78,420.55,191.63,438.74,208.6
	z M340.81,170.79l0.02,33.34c-1.63,0.03-3.25,0.1-4.87,0.2l-1.21-20.77l-0.79-12.51C336.23,170.9,338.51,170.82,340.81,170.79z
	 M332.12,171.17l0.79,12.49l1.21,20.79c-1.27,0.1-2.53,0.23-3.79,0.38l-3.9-33.12C328.32,171.5,330.21,171.32,332.12,171.17z
	 M324.6,171.94l3.9,33.13c-1.64,0.22-3.26,0.47-4.88,0.77l-3.55-20.52l-2.23-12.34C320.08,172.57,322.33,172.23,324.6,171.94z
	 M316.02,173.31l2.23,12.33l3.56,20.56c-1.27,0.26-2.53,0.54-3.79,0.84l-4.68-20.32l-2.89-12.22
	C312.29,174.06,314.15,173.67,316.02,173.31z M308.65,174.93l2.89,12.2l4.69,20.33c-1.52,0.39-3.04,0.82-4.54,1.29l-9.65-32
	C304.22,176.09,306.43,175.48,308.65,174.93z M300.27,177.29l9.66,32.03c-1.27,0.41-2.53,0.85-3.78,1.32l-6.97-19.69l-4.29-11.83
	C296.67,178.48,298.46,177.86,300.27,177.29z M293.15,179.75l4.29,11.82l6.98,19.71c-1.47,0.57-2.92,1.19-4.36,1.83l-11.86-27.73
	l-1.34-3.08C288.93,181.41,291.03,180.55,293.15,179.75z M285.14,183.08l13.23,30.79c-1.31,0.61-2.61,1.24-3.9,1.9l-8.96-19.19
	L280,185.52C281.7,184.67,283.41,183.86,285.14,183.08z M278.36,186.37l5.5,11.02l8.99,19.27c-1.19,0.64-2.36,1.3-3.53,1.99
	l-10.77-18.32l-6.18-10.66C274.34,188.51,276.34,187.41,278.36,186.37z M270.78,190.59l6.18,10.66l10.78,18.33
	c-1.11,0.68-2.2,1.38-3.28,2.1l-18.44-28.08C267.58,192.57,269.17,191.56,270.78,190.59z M264.47,194.63l11.87,18.07
	c-1.5,1.02-2.97,2.07-4.42,3.16l-5.56-7.22l-7.47-10.02C260.72,197.23,262.58,195.9,264.47,194.63z M257.42,199.73l7.47,10.02
	l5.56,7.23c-1.15,0.89-2.28,1.8-3.4,2.72L253.1,203.2C254.52,202.01,255.96,200.85,257.42,199.73z M251.69,204.39l13.94,16.49
	c-1.4,1.2-2.79,2.43-4.13,3.7l-14.92-15.58C248.25,207.42,249.96,205.88,251.69,204.39z M457.88,391.68
	c-3.76,5.36-7.95,10.5-12.48,15.35l-7.69-7.25l-1.27,1.34l7.69,7.26c-1.27,1.33-2.57,2.63-3.88,3.9l-16-17.2l-0.67,0.65
	c-3.05,2.92-6.31,5.69-9.67,8.26l-7.46-10.03l-0.74,0.56c-18.1,13.77-39.72,21.09-62.52,21.15c-0.11,0-0.21,0-0.31,0
	c-21.52,0-42.15-6.52-59.69-18.87l-1.06,1.51c13.55,9.54,28.87,15.63,45.08,18.03l-2.38,17.88l-5.46,4.18l4.96,6.49l6.49-4.97
	l-4.17-5.45l2.38-17.89c4.26,0.56,8.58,0.86,12.94,0.91l0.28,34.02c-12.61-0.06-25.02-1.81-36.92-5.12l6.02-21.53l0.29-1.05
	l-0.88-0.25c-12.89-3.68-24.97-9.51-35.9-17.35l-0.76-0.54l-13.51,19.17c-12.52-9.05-23.61-20.2-32.71-33.17l-0.55-0.78l-7.41,5.6
	l0.51,0.73c16.61,23.5,39.58,41.59,66.42,52.31c17.76,7.09,36.37,10.69,55.33,10.69h0.13l0.07,8.92l1.84-0.01l-0.08-9.84l-0.02-2.36
	l0.07-3.57c2.36-0.02,4.72-0.1,7.06-0.23l0.38,6.75l1.84-0.1l-0.39-6.77c1.94-0.14,3.87-0.31,5.8-0.52l1.79,15.75l1.83-0.21
	l-1.79-15.76c2.32-0.28,4.62-0.63,6.91-1.03l1.14,6.64l1.82-0.31l-1.14-6.66c1.92-0.36,3.84-0.76,5.74-1.2l3.55,15.52l1.8-0.41
	L377,449.3c2.25-0.55,4.47-1.15,6.68-1.81l1.93,6.43l1.77-0.53l-1.93-6.44c1.88-0.58,3.74-1.21,5.59-1.87l5.33,15.11l1.74-0.61
	l-5.33-15.12c2.16-0.81,4.29-1.66,6.4-2.58l2.68,6.13l1.69-0.74l-2.69-6.14c1.79-0.8,3.57-1.63,5.33-2.51l7.09,14.51l1.66-0.81
	l-7.1-14.55c2.04-1.05,4.05-2.15,6.03-3.29l3.34,5.81l1.6-0.92l-3.34-5.82c1.69-1.01,3.35-2.05,5-3.13l8.79,13.76l1.55-0.99
	L422,429.42c1.89-1.27,3.75-2.59,5.58-3.95l4.02,5.4l1.48-1.1l-4.03-5.41c1.57-1.2,3.12-2.44,4.64-3.71l10.4,12.82l1.43-1.16
	l-10.42-12.85c1.72-1.47,3.4-2.99,5.06-4.55l4.6,4.95l1.35-1.26l-4.62-4.96c1.35-1.3,2.67-2.63,3.97-3.98l12.14,11.45l1.27-1.34
	l-7.47-7.05c4.71-5.06,9.11-10.47,13.06-16.13l0.51-0.73l-6.56-4.95L457.88,391.68z M328.22,439.59l-3.56,2.72l-2.72-3.56l3.56-2.72
	L328.22,439.59z M309.37,425.1l-2.87,10.25c-0.97-0.28-1.93-0.57-2.89-0.87l3.2-10.18C307.66,424.56,308.51,424.85,309.37,425.1z
	 M305.05,423.73l-3.2,10.2c-0.98-0.32-1.95-0.68-2.92-1.02l3.59-10.07C303.37,423.14,304.2,423.45,305.05,423.73z M300.79,422.21
	l-3.6,10.09c-0.97-0.36-1.92-0.75-2.88-1.13l3.99-9.95C299.12,421.55,299.95,421.89,300.79,422.21z M296.59,420.52l-3.99,9.97
	c-0.95-0.39-1.9-0.81-2.84-1.23l4.38-9.82C294.95,419.81,295.76,420.17,296.59,420.52z M292.46,418.67l-4.38,9.83
	c-0.94-0.43-1.87-0.87-2.79-1.33l4.77-9.67C290.85,417.9,291.65,418.29,292.46,418.67z M288.4,416.67l-4.77,9.68
	c-0.92-0.47-1.84-0.93-2.74-1.42l5.15-9.51C286.82,415.84,287.61,416.26,288.4,416.67z M284.43,414.51l-5.15,9.52
	c-0.9-0.5-1.81-0.99-2.69-1.52l5.53-9.33C282.88,413.63,283.66,414.07,284.43,414.51z M280.54,412.21l-5.53,9.34
	c-0.88-0.54-1.76-1.06-2.63-1.62l5.89-9.13C279.03,411.28,279.79,411.74,280.54,412.21z M274.53,408.26c0.73,0.51,1.47,1,2.21,1.49
	l-5.9,9.14c-0.87-0.58-1.73-1.15-2.58-1.75L274.53,408.26z M262.09,425.92l5.11-7.26c11.82,8.26,24.86,14.47,38.79,18.47l-2.45,8.76
	C288.72,441.55,274.71,434.79,262.09,425.92z M344.08,451.53l-0.28-34.02c1.82-0.01,3.63-0.08,5.43-0.19l1.92,33.98
	C348.81,451.43,346.45,451.51,344.08,451.53z M353,451.17l-1.92-33.97c1.26-0.1,2.52-0.22,3.78-0.36l3.83,33.81
	C356.8,450.87,354.9,451.04,353,451.17z M360.52,450.44l-3.83-33.82c1.64-0.21,3.27-0.47,4.89-0.76l5.75,33.56
	C365.08,449.82,362.81,450.16,360.52,450.44z M369.15,449.11l-5.75-33.57c1.27-0.25,2.53-0.52,3.79-0.82l7.6,33.21
	C372.92,448.36,371.04,448.75,369.15,449.11z M376.58,447.5l-7.6-33.21c1.48-0.37,2.94-0.78,4.4-1.22l9.77,32.66
	C380.98,446.37,378.79,446.96,376.58,447.5z M384.92,445.19l-9.78-32.67c1.32-0.42,2.63-0.87,3.94-1.35l11.34,32.17
	C388.6,443.99,386.77,444.61,384.92,445.19z M392.16,442.72l-11.35-32.18c1.33-0.51,2.64-1.05,3.95-1.61l13.68,31.27
	C396.36,441.08,394.27,441.93,392.16,442.72z M400.12,439.45l-13.68-31.28c1.33-0.6,2.65-1.24,3.95-1.9l14.99,30.7
	C403.64,437.83,401.89,438.66,400.12,439.45z M407.02,436.13l-14.98-30.7c1.31-0.69,2.61-1.42,3.9-2.17l17.01,29.63
	C411,434.02,409.02,435.1,407.02,436.13z M414.54,431.97l-17.02-29.65c1.19-0.72,2.37-1.47,3.54-2.25l18.41,28.82
	C417.85,429.94,416.21,430.98,414.54,431.97z M421.01,427.86l-18.41-28.81c1.17-0.8,2.33-1.64,3.48-2.49l20.41,27.42
	C424.69,425.32,422.86,426.61,421.01,427.86z M427.96,422.86L415,405.46c1.31-1,2.61-2.03,3.88-3.09l13.65,16.83
	C431.03,420.45,429.5,421.68,427.96,422.86z M433.95,418.01l-13.66-16.85c1.32-1.13,2.63-2.28,3.89-3.46l14.74,15.84
	C437.29,415.08,435.63,416.57,433.95,418.01z M310.72,303.44l0.09-0.05l-0.01-0.03l0.35-0.18l17.01-9.86l0.7,7.19
	c1.66,3.09,5.57,8.17,13.36,8.17c4.96,0,10.26-2.39,10.26-9.08c0-5.39-6.13-8.39-14.15-11.75c-14.34-5.94-23.89-12.64-23.89-26.06
	c0-14.69,11.23-24.96,27.31-24.96c10.72,0,19.96,4.56,25.35,12.5l1.27,1.78l-0.37,0.32l-16.04,14.4l-1.03-7.93
	c-2.51-2.21-5.35-3.2-9.19-3.2c-4.04,0-8.14,2.19-8.14,6.37c0,4.58,3.72,6.37,11.47,9.66c1.28,0.54,2.51,1.07,3.79,1.64
	c11.65,5.18,22.42,12.02,22.42,26.86c0,16.33-11.69,27.31-29.08,27.31c-8.19,0-15.55-2.49-21.28-7.2
	c-4.53-3.72-8.02-8.86-9.57-14.11l-0.42-1.44L310.72,303.44z M99,255.99h-16.4l0,63.42l2.18,6.56H62.62l2.15-6.48v-63.5H48.39
	l-6.46,2.14v-20l0.5-0.01h63.02v20.01L99,255.99z M186.79,319.47v-74.9l-2.16-6.5h22.16l-2.15,6.48v63.56h26.07l6.48-2.15v20.01
	h-52.56L186.79,319.47z M137.92,323.38l12.76-16.04l5.03,14.13l-1.49,4.5h21.99l-29.82-81.86l2-6.03h-20.2l1.91,5.75l-29.92,82.14
	h21.99l-1.52-4.58l4.81-13.98L137.92,323.38z M138.15,271.09l6.14,17.67l-6.2,6.43l-5.88-7.1L138.15,271.09z M267.44,255.99v15.95
	h17.26l6.36-2.11v22.15l-6.6-2.19h-17.02v18.32h27.5l6.48-2.15v20.01h-54.56l2.13-6.43V244.5l-2.13-6.42h22.15l-0.02,0.05
	l32.42-0.01v20.01l-6.44-2.14H267.44z M585.38,238.1h-29.09l2.15,6.47v74.94l-2.13,6.42h22.16l-2.13-6.41V291.1h9.28
	c19.42,0,30.12-9.82,30.12-27.67C615.74,248.28,603.54,238.1,585.38,238.1z M585.62,271.89h-9.28v-14.58h9.28
	c3.9,0,10.45,0.95,10.45,7.29C596.07,270.94,589.52,271.89,585.62,271.89z M431.77,236.45c-18.59,0-33.72,15.12-33.72,33.72v23.87
	c0,18.59,15.13,33.72,33.72,33.72c18.59,0,33.72-15.12,33.72-33.72v-23.87C465.48,251.58,450.36,236.45,431.77,236.45z
	 M447.11,294.04c0,8.46-6.88,15.34-15.34,15.34c-8.46,0-15.34-6.88-15.34-15.34v-23.87c0-8.46,6.88-15.34,15.34-15.34
	c8.46,0,15.34,6.88,15.34,15.34V294.04z M477.7,319.52V244.5l-2.13-6.43h22.15l-0.02,0.05l32.42-0.01v20.01l-6.44-2.14h-27.54v15.95
	h17.26l6.36-2.11v22.16l-6.6-2.19h-17.01v29.79l2.11,6.36l-2.61,0.03l-20.08-0.03L477.7,319.52z M642.68,319.46l2.15,6.48h-22.16
	l2.15-6.48v-74.88l-2.15-6.48h22.16l-2.15,6.48V319.46z M186.24,362.66c0-3.99,3.22-7.24,7.17-7.24c3.91,0,7.21,3.31,7.21,7.24
	c0,3.95-3.23,7.17-7.21,7.17C189.45,369.83,186.24,366.61,186.24,362.66z M283.92,361.61h-3.55v-6.1h3.55
	c1.73,0,3.13,1.32,3.13,2.94C287.05,360.19,285.65,361.61,283.92,361.61z M476.64,362.66c0-3.99,3.22-7.24,7.18-7.24
	c3.91,0,7.21,3.31,7.21,7.24c0,3.95-3.23,7.17-7.21,7.17C479.86,369.83,476.64,366.61,476.64,362.66z M160.96,361.45h-5.05v-6.03
	h5.05c1.63,0,3,1.35,3,2.94C163.96,360.03,162.59,361.45,160.96,361.45z M344.12,366.01h-5.9l2.92-6.56L344.12,366.01z
	 M133.76,385.79h419.04v-45.91H133.76V385.79z M507.95,351.5c0.14-0.19,0.37-0.29,0.65-0.29h2.96c0.36,0,0.67,0.3,0.75,0.58
	l3.25,12.48l4.98-12.91c0.1-0.29,0.36-0.47,0.71-0.47h0.58c0.35,0,0.61,0.17,0.71,0.48l5.01,12.9l3.19-12.47
	c0.09-0.32,0.43-0.58,0.75-0.58h2.95c0.28,0,0.51,0.1,0.65,0.29c0.14,0.19,0.17,0.44,0.1,0.71l-6.07,21.57
	c-0.08,0.33-0.4,0.58-0.74,0.58h-0.52c-0.34,0-0.62-0.19-0.71-0.47l-5.66-14.32l-5.6,14.33c-0.11,0.22-0.28,0.47-0.71,0.47h-0.51
	c-0.35,0-0.67-0.25-0.75-0.58l-6.07-21.57C507.77,351.94,507.8,351.69,507.95,351.5z M483.82,350.89c6.47,0,11.74,5.28,11.74,11.77
	c0,6.56-5.16,11.7-11.74,11.7c-6.56,0-11.7-5.14-11.7-11.7C472.12,356.17,477.37,350.89,483.82,350.89z M438.45,352
	c0-0.42,0.37-0.79,0.79-0.79h2.99c0.43,0,0.79,0.35,0.79,0.79v8.33h10.11V352c0-0.43,0.35-0.79,0.79-0.79h2.95
	c0.42,0,0.79,0.37,0.79,0.79v21.26c0,0.42-0.37,0.79-0.79,0.79h-2.95c-0.43,0-0.79-0.35-0.79-0.79v-8.68h-10.11v8.68
	c0,0.43-0.35,0.79-0.79,0.79h-2.99c-0.42,0-0.79-0.37-0.79-0.79V352z M415.19,364.33c-2.64-1.07-6.15-2.96-6.15-7.1
	c0-3.05,2.32-6.34,7.4-6.34c3.45,0,6.04,1.82,6.53,2.19c0.17,0.1,0.31,0.31,0.36,0.56c0.06,0.27,0.01,0.54-0.13,0.74l-1.22,1.82
	c-0.34,0.51-0.95,0.72-1.37,0.44l-0.05-0.03c-1.71-1.09-3.28-1.71-4.32-1.71c-1.82,0-2.65,1.21-2.65,2.07
	c0,1.37,1.06,2.37,3.68,3.43c3.37,1.36,6.82,3.3,6.82,7.42c0,3.17-2.65,6.54-7.56,6.54c-4.28,0-6.74-2.13-7.19-2.55
	c-0.3-0.3-0.55-0.55-0.19-1.18l1.16-1.99c0.17-0.29,0.46-0.46,0.79-0.46c0.21,0,0.41,0.07,0.56,0.18l0,0c0,0,0.03,0.02,0.08,0.06
	c1.81,1.22,3.46,1.9,4.65,1.9c1.54,0,2.74-1.01,2.74-2.3C419.16,366.56,417.97,365.46,415.19,364.33z M360.45,351.6
	c0.14-0.24,0.4-0.39,0.69-0.39h3.28c0.26,0,0.48,0.12,0.66,0.36l4.99,7.18l4.99-7.17c0.18-0.25,0.41-0.37,0.66-0.37h3.31
	c0.3,0,0.56,0.15,0.7,0.39c0.14,0.25,0.13,0.56-0.03,0.81l-7.39,10.65v10.19c0,0.42-0.37,0.79-0.79,0.79h-2.95
	c-0.43,0-0.79-0.35-0.79-0.79V363.1l-7.29-10.68C360.32,352.15,360.31,351.85,360.45,351.6z M330.36,372.95l9.98-21.61
	c0.19-0.38,0.49-0.46,0.71-0.46h0.32c0.42,0,0.6,0.24,0.7,0.45l9.89,21.61c0.12,0.26,0.11,0.53-0.03,0.74
	c-0.14,0.22-0.38,0.34-0.67,0.34h-2.79c-0.6,0-0.86-0.28-1.09-0.74l-1.53-3.37h-9.37l-1.52,3.36c-0.19,0.47-0.59,0.75-1.09,0.75
	h-2.79c-0.29,0-0.54-0.12-0.68-0.34C330.25,373.48,330.24,373.21,330.36,372.95z M305.44,352c0-0.43,0.35-0.79,0.79-0.79h2.95
	c0.42,0,0.79,0.37,0.79,0.79v17.83h8.01c0.44,0,0.79,0.35,0.79,0.79v2.63c0,0.43-0.35,0.79-0.79,0.79h-11.75
	c-0.43,0-0.79-0.35-0.79-0.79V352z M275.85,352c0-0.43,0.35-0.79,0.79-0.79h7.54c4.06,0,7.37,3.26,7.37,7.27
	c0,4.08-3.29,7.4-7.34,7.4h-3.84v7.37c0,0.42-0.37,0.79-0.79,0.79h-2.95c-0.43,0-0.79-0.35-0.79-0.79V352z M246.38,352
	c0-0.43,0.35-0.79,0.79-0.79h13.07c0.43,0,0.79,0.35,0.79,0.79v2.63c0,0.43-0.35,0.79-0.79,0.79h-9.33v4.91h7.75
	c0.42,0,0.79,0.37,0.79,0.79v2.67c0,0.43-0.35,0.79-0.79,0.79h-7.75v5.26h9.33c0.43,0,0.79,0.35,0.79,0.79v2.63
	c0,0.43-0.35,0.79-0.79,0.79h-13.07c-0.43,0-0.79-0.35-0.79-0.79V352z M219.58,352c0-0.43,0.35-0.79,0.79-0.79h2.95
	c0.42,0,0.79,0.37,0.79,0.79v17.83h8.01c0.43,0,0.79,0.35,0.79,0.79v2.63c0,0.43-0.36,0.79-0.79,0.79h-11.75
	c-0.43,0-0.79-0.35-0.79-0.79V352z M193.41,350.89c6.47,0,11.74,5.28,11.74,11.77c0,6.56-5.15,11.7-11.74,11.7
	c-6.56,0-11.7-5.14-11.7-11.7C181.71,356.17,186.96,350.89,193.41,350.89z M151.35,352c0-0.43,0.35-0.79,0.79-0.79h9.18
	c3.96,0,7.18,3.18,7.18,7.08c0,2.84-1.79,5.34-4.68,6.57l4.31,7.98c0.14,0.27,0.14,0.58,0,0.82c-0.14,0.24-0.4,0.37-0.7,0.37h-3.37
	c-0.44,0-0.63-0.3-0.67-0.39l-4.22-8.41h-3.28v8.01c0,0.42-0.37,0.79-0.79,0.79h-2.95c-0.43,0-0.79-0.35-0.79-0.79V352z"/>
</svg>
